<?xml version="1.0" encoding="UTF-8" standalone="no"?>
<!-- Created with Inkscape (http://www.inkscape.org/) -->

<svg
   width="155.82256mm"
   height="68.3526mm"
   viewBox="0 0 155.82256 68.3526"
   version="1.1"
   id="svg5"
   inkscape:version="1.2.2 (732a01da63, 2022-12-09)"
   sodipodi:docname="logo.svg"
   xml:space="preserve"
   xmlns:inkscape="http://www.inkscape.org/namespaces/inkscape"
   xmlns:sodipodi="http://sodipodi.sourceforge.net/DTD/sodipodi-0.dtd"
   xmlns="http://www.w3.org/2000/svg"
   xmlns:svg="http://www.w3.org/2000/svg"><sodipodi:namedview
     id="namedview7"
     pagecolor="#ffffff"
     bordercolor="#000000"
     borderopacity="0.25"
     inkscape:showpageshadow="2"
     inkscape:pageopacity="0.0"
     inkscape:pagecheckerboard="0"
     inkscape:deskcolor="#d1d1d1"
     inkscape:document-units="mm"
     showgrid="false"
     inkscape:zoom="4"
     inkscape:cx="181.125"
     inkscape:cy="317.25"
     inkscape:window-width="1600"
     inkscape:window-height="837"
     inkscape:window-x="1432"
     inkscape:window-y="-8"
     inkscape:window-maximized="1"
     inkscape:current-layer="layer1"
     showguides="false" /><defs
     id="defs2" /><g
     inkscape:label="Capa 1"
     inkscape:groupmode="layer"
     id="layer1"
     transform="translate(-17.435164,-170.06765)"><text
       xml:space="preserve"
       style="font-size:28.7389px;font-family:'Times New Roman';-inkscape-font-specification:'Times New Roman, ';fill:#060606;stroke-width:0.534863;stroke-linecap:round;stroke-linejoin:round;stroke-dasharray:none;stroke-opacity:0.390873"
       x="281.15622"
       y="-14.956832"
       id="text174-4-5-1-07"
       transform="matrix(0.1764849,0.66961046,-1.3964034,0.36804099,0,0)"
       inkscape:export-filename="logo_rios_v4.svg"
       inkscape:export-xdpi="2000"
       inkscape:export-ydpi="2000"><tspan
         sodipodi:role="line"
         id="tspan172-0-3-5-3"
         style="font-style:normal;font-variant:normal;font-weight:bold;font-stretch:condensed;font-family:'Agency FB';-inkscape-font-specification:'Agency FB Bold Condensed';fill:#060606;fill-opacity:1;stroke:#000000;stroke-width:0.534863;stroke-dasharray:none;stroke-opacity:1"
         x="281.15622"
         y="-14.956832">R</tspan></text><path
       style="fill:none;stroke:#000000;stroke-width:1.29591;stroke-linecap:round;stroke-linejoin:round;stroke-dasharray:none;stroke-opacity:1"
       d="m 95.404714,176.99194 -1.208709,-4.58768"
       id="path415-2-3"
       sodipodi:nodetypes="cc" /><path
       style="fill:#060606;fill-opacity:1;stroke:none;stroke-width:1.29591;stroke-linecap:round;stroke-linejoin:round;stroke-dasharray:none;stroke-opacity:1"
       d="m 103.36067,173.72047 c -1.94792,-5.26968 -9.068902,-1.78307 -9.068902,-1.78307 0,0 -6.941995,2.26216 -8.674724,-1.86974"
       id="path1298-0-1-12"
       sodipodi:nodetypes="ccc" /><text
       xml:space="preserve"
       style="font-size:28.7389px;font-family:'Times New Roman';-inkscape-font-specification:'Times New Roman, ';fill:none;fill-opacity:1;stroke-width:0.534863;stroke-linecap:round;stroke-linejoin:round;stroke-dasharray:none;stroke-opacity:0.390873"
       x="281.15622"
       y="14.586471"
       id="text174-4-5-1-7-9"
       transform="matrix(0.1764849,0.66961046,1.3964034,-0.36804099,0,0)"><tspan
         sodipodi:role="line"
         id="tspan172-0-3-5-9-1"
         style="font-style:normal;font-variant:normal;font-weight:bold;font-stretch:condensed;font-family:'Agency FB';-inkscape-font-specification:'Agency FB Bold Condensed';fill:none;fill-opacity:1;stroke:#000000;stroke-width:0.534863;stroke-dasharray:none;stroke-opacity:1"
         x="281.15622"
         y="14.586471">R</tspan></text><path
       style="fill:#000000;fill-opacity:1;stroke:#000000;stroke-width:1.29591;stroke-linecap:round;stroke-linejoin:round;stroke-dasharray:none;stroke-opacity:1"
       d="m 45.480583,190.15019 -1.209552,-4.58753"
       id="path415-2-2-7"
       sodipodi:nodetypes="cc" /><path
       style="fill:#000000;fill-opacity:1;stroke:none;stroke-width:1.29591;stroke-linecap:round;stroke-linejoin:round;stroke-dasharray:none;stroke-opacity:1"
       d="m 36.945674,191.22506 c -0.902479,-5.54521 7.0119,-6.02144 7.0119,-6.02144 0,0 7.15522,-1.45326 6.626297,-5.90255"
       id="path1298-0-1-1-2"
       sodipodi:nodetypes="ccc" /><ellipse
       style="fill:none;fill-opacity:1;stroke:#000000;stroke-width:0.306478;stroke-linecap:round;stroke-linejoin:round;stroke-dasharray:none;stroke-opacity:1"
       id="path2558-90"
       ry="3.4290686"
       rx="8.2587852"
       cy="211.15178"
       cx="24.840666"
       transform="matrix(0.97145381,-0.23722877,0.25717707,0.9663643,0,0)" /><ellipse
       style="fill:#060606;fill-opacity:1;stroke:#000000;stroke-width:0.415632;stroke-linecap:round;stroke-linejoin:round;stroke-dasharray:none;stroke-opacity:1"
       id="path2558-8-6"
       ry="2.3005331"
       rx="5.5407495"
       cy="211.22949"
       cx="24.791304"
       transform="matrix(0.97145381,-0.23722877,0.25717707,0.9663643,0,0)" /><rect
       style="fill:#060606;fill-opacity:1;stroke:none;stroke-width:0.612891;stroke-linecap:round;stroke-linejoin:round;stroke-dasharray:none;stroke-dashoffset:0;stroke-opacity:1"
       id="rect2708-9"
       width="8.972373"
       height="2.1469438"
       x="19.651159"
       y="205.09834"
       transform="rotate(-15.048218)" /><text
       xml:space="preserve"
       style="font-style:normal;font-variant:normal;font-weight:bold;font-stretch:normal;font-size:12.3591px;font-family:'Agency FB';-inkscape-font-specification:'Agency FB Bold';white-space:pre;inline-size:14.5622;display:inline;opacity:0.0920437;fill:#000000;fill-opacity:0;stroke:none;stroke-width:0.0618928;stroke-linecap:round;stroke-linejoin:round;stroke-dasharray:none;stroke-dashoffset:0;stroke-opacity:1"
       x="208.35524"
       y="72.721481"
       id="text9707"
       transform="matrix(-1.1624716,2.9675699,-12.692252,0.47061233,1194.1582,-437.92384)"><tspan
         x="208.35524"
         y="72.721481"
         id="tspan17052"><tspan
           style="font-family:sans-serif;-inkscape-font-specification:'sans-serif Bold'"
           id="tspan17050">S</tspan></tspan></text><path
       style="fill:#006eec;fill-opacity:0.68652;stroke:none;stroke-width:0.39925"
       d="m 79.220323,219.33463 c 3.438017,-1.28826 4.292407,-2.05059 17.162274,-4.04332 7.833443,-1.2129 29.560603,-1.34051 36.253443,0.1467 3.98494,0.66905 8.32188,2.58064 8.79802,4.7703 0.84478,3.88503 -3.32506,8.22517 -9.59109,12.41451 0,0 0.52893,0.0991 -11.65342,0.55492 -6.70986,0.25112 -13.01062,0.3002 -13.01062,0.3002 0,0 1.96672,-1.05168 3.35737,-1.77493 6.70195,-3.48545 9.03404,-6.62028 8.73935,-8.35221 -0.2571,-1.511 -1.93686,-2.61523 -8.52838,-2.64686 -9.11805,-0.0437 -12.309259,1.82547 -15.147398,4.22244 -6.267249,4.76036 -5.315289,4.55945 -12.773701,7.96505 z"
       id="path9909"
       sodipodi:nodetypes="cscssscsssccc" /><text
       xml:space="preserve"
       style="font-style:normal;font-variant:normal;font-weight:bold;font-stretch:normal;font-size:5.40536px;font-family:sans-serif;-inkscape-font-specification:'sans-serif Bold';opacity:1;fill:none;fill-opacity:0.68652;stroke:#006eed;stroke-width:0.122578;stroke-linecap:round;stroke-linejoin:round;stroke-dasharray:none;stroke-dashoffset:0;stroke-opacity:1"
       x="110.29577"
       y="182.31093"
       id="text11691"><tspan
         sodipodi:role="line"
         id="tspan11689"
         style="font-style:normal;font-variant:normal;font-weight:normal;font-stretch:normal;font-size:5.40536px;font-family:'Times New Roman';-inkscape-font-specification:'Times New Roman, ';fill:#0e70ff;fill-opacity:1;stroke:#000000;stroke-width:0.122578;stroke-dasharray:none;stroke-opacity:1"
         x="110.29577"
         y="182.31093">   Remote sensing with drone</tspan><tspan
         sodipodi:role="line"
         style="font-style:normal;font-variant:normal;font-weight:normal;font-stretch:normal;font-size:5.40536px;font-family:'Times New Roman';-inkscape-font-specification:'Times New Roman, ';fill:#0e70ff;fill-opacity:1;stroke:#000000;stroke-width:0.122578;stroke-dasharray:none;stroke-opacity:1"
         x="110.29577"
         y="189.08307"
         id="tspan11845">  Imagery for </tspan><tspan
         sodipodi:role="line"
         style="font-style:normal;font-variant:normal;font-weight:normal;font-stretch:normal;font-size:5.40536px;font-family:'Times New Roman';-inkscape-font-specification:'Times New Roman, ';fill:#0e70ff;fill-opacity:1;stroke:#000000;stroke-width:0.122578;stroke-dasharray:none;stroke-opacity:1"
         x="110.29577"
         y="195.85519"
         id="tspan11847"> Observation of water </tspan><tspan
         sodipodi:role="line"
         style="font-style:normal;font-variant:normal;font-weight:normal;font-stretch:normal;font-size:5.40536px;font-family:'Times New Roman';-inkscape-font-specification:'Times New Roman, ';fill:#0e70ff;fill-opacity:1;stroke:#000000;stroke-width:0.122578;stroke-dasharray:none;stroke-opacity:1"
         x="110.29577"
         y="202.62733"
         id="tspan11849">Surfaces</tspan></text><path
       style="fill:#006eec;fill-opacity:0.584314;stroke-width:0.143057"
       d="m 38.992654,237.18622 c -14.083768,-0.77276 -20.006896,-3.59115 -18.399948,-8.75492 1.018497,-3.27292 4.421451,-6.49196 10.557102,-9.98678 2.246554,-1.27963 0.46365,-1.08464 14.208457,-1.55371 5.625334,-0.19197 10.855492,-0.38846 11.622586,-0.43658 0.767093,-0.0501 1.393252,-0.03 1.391457,0.03 -0.0018,0.0651 -0.693776,0.4025 -1.537755,0.74925 -9.251442,3.80144 -14.468889,7.63455 -14.157116,10.40091 0.139296,1.23623 1.242494,1.96914 3.822376,2.53966 1.212954,0.26867 1.807309,0.30024 5.438625,0.29523 6.852299,-0.01 10.557538,-0.71502 13.966156,-2.65854 0.697611,-0.39749 2.716732,-1.80494 4.486939,-3.12706 3.603382,-2.69133 5.041776,-3.62575 6.974337,-4.53085 6.831285,-3.19934 14.616831,-4.77495 27.9292,-5.65227 3.81074,-0.25113 17.66793,-0.25113 20.45576,0 9.05137,0.81547 14.04263,2.5003 15.48544,5.22722 0.24205,0.45713 0.31537,0.84244 0.31798,1.66779 0.003,0.91878 -0.0639,1.21471 -0.46365,2.0592 -1.21592,2.56792 -3.58219,5.04076 -7.68041,8.02627 l -1.56722,1.14178 -12.30837,0.44812 c -6.76958,0.24611 -12.32964,0.43006 -12.35567,0.407 -0.0266,-0.0251 1.16485,-0.65602 2.64637,-1.40803 6.99087,-3.54846 10.38381,-6.95627 9.26785,-9.30831 -0.72582,-1.52969 -3.28465,-2.16151 -8.64833,-2.13554 -6.03386,0.03 -9.75409,0.83126 -12.731211,2.74436 -0.59009,0.37944 -2.39247,1.74783 -4.005329,3.04145 -3.20321,2.56917 -4.484699,3.44298 -6.911824,4.71294 -6.323607,3.30881 -14.578631,5.01018 -28.492382,5.87247 -2.398918,0.14887 -17.366504,0.29373 -19.31138,0.18696 z"
       id="path13325" /></g></svg>
